<?xml version="1.0" encoding="UTF-8"?>
<!-- Generated by Pixelmator Pro 3.7.1 -->
<svg width="1372" height="400" viewBox="0 0 1372 400" xmlns="http://www.w3.org/2000/svg">
    <path id="path1" fill="#000000" stroke="#ffffff" stroke-width="3" stroke-opacity="0.07" d="M 454 1 L 454 400"/>
    <path id="path2" fill="#000000" stroke="#ffffff" stroke-width="3" stroke-opacity="0.07" d="M 964 1 L 964 400"/>
    <g id="g1">
        <g id="g2">
            <g id="g3">
                <path id="path3" fill="none" stroke="#ffffff" stroke-width="4.5" stroke-opacity="0.88" stroke-linecap="round" stroke-linejoin="round" d="M 172 139 L 172 115 C 172 100.088318 184.088303 88 199 88 C 213.911697 88 226 100.088318 226 115 L 226 139"/>
                <path id="path4" fill="none" stroke="#ffffff" stroke-width="4.5" stroke-opacity="0.88" stroke-linecap="round" stroke-linejoin="round" d="M 175 139 L 223 139 C 231.284286 139 238 145.715729 238 154 L 238 184 C 238 192.284271 231.284286 199 223 199 L 175 199 C 166.715714 199 160 192.284271 160 184 L 160 154 C 160 145.715729 166.715714 139 175 139 Z"/>
                <path id="path5" fill="none" stroke="#ffffff" stroke-width="4.5" stroke-opacity="0.88" stroke-linecap="round" stroke-linejoin="round" d="M 209.5 172 C 209.5 177.798996 204.798996 182.5 199 182.5 C 193.201004 182.5 188.5 177.798996 188.5 172 C 188.5 166.201004 193.201004 161.5 199 161.5 C 204.798996 161.5 209.5 166.201004 209.5 172 Z"/>
            </g>
        </g>
        <text id="No-uploads" xml:space="preserve" x="84.865314" y="278" font-family="SF Pro" font-size="45" font-weight="600" fill="#ffffff">No uploads</text>
        <text id="Files-never-leave-your" xml:space="preserve" x="-1.724609" y="346" font-family="SF Pro" font-size="36" fill="#ffffff" fill-opacity="0.709804">Files never leave your Mac</text>
    </g>
    <g id="g4">
        <g id="g5">
            <g id="g6">
                <path id="path6" fill="none" stroke="#ffffff" stroke-width="4.5" stroke-opacity="0.88" stroke-linecap="round" stroke-linejoin="round" d="M 673 100 L 745 100 C 749.970581 100 754 104.029449 754 109 L 754 148 C 754 152.970551 749.970581 157 745 157 L 673 157 C 668.029419 157 664 152.970551 664 148 L 664 109 C 664 104.029449 668.029419 100 673 100 Z"/>
                <path id="path7" fill="none" stroke="#ffffff" stroke-width="4.5" stroke-opacity="0.88" stroke-linecap="round" stroke-linejoin="round" d="M 661 157 L 757 157 C 761.970581 157 766 161.029449 766 166 L 766 169 C 766 173.970551 761.970581 178 757 178 L 661 178 C 656.029419 178 652 173.970551 652 169 L 652 166 C 652 161.029449 656.029419 157 661 157 Z"/>
            </g>
        </g>
        <text id="Runs-locally" xml:space="preserve" x="585.568405" y="278" font-family="SF Pro" font-size="45" font-weight="600" fill="#ffffff">Runs locally</text>
        <text id="All-AI-runs-on-device" xml:space="preserve" x="550.673828" y="346" font-family="SF Pro" font-size="36" fill="#ffffff" fill-opacity="0.709804">All AI runs on-device</text>
    </g>
    <g id="g7">
        <g id="g8">
            <g id="g9">
                <path id="path8" fill="none" stroke="#ffffff" stroke-width="4.5" stroke-opacity="0.88" stroke-linecap="round" stroke-linejoin="round" d="M 1219 100 C 1231 100 1240.092529 107.934998 1243 115 C 1248.932861 116.746033 1266.98645 129.362335 1267 139 C 1271.532227 146.497849 1267 160 1255 160 L 1189 160 C 1177 160 1177 139 1177 139 C 1177 139 1179.253784 122.667633 1189 118 C 1191.585693 105.904785 1207 100 1219 100 Z"/>
                <path id="path9" fill="none" stroke="#ffffff" stroke-width="4.5" stroke-opacity="0.88" stroke-linecap="round" stroke-linejoin="round" d="M 1177 103 L 1270 169"/>
            </g>
        </g>
        <text id="No-account" xml:space="preserve" x="1103.321931" y="278" font-family="SF Pro" font-size="45" font-weight="600" fill="#ffffff">No account</text>
        <text id="No-login-no-tracking" xml:space="preserve" x="1062.932617" y="346" font-family="SF Pro" font-size="36" fill="#ffffff" fill-opacity="0.709804">No login, no tracking</text>
    </g>
</svg>
